HIERARCHY
ROOT root
{
	OFFSET 0.00 0.00 0.00
	CHANNELS 6 Xposition Yposition Zposition Zrotation Xrotation Yrotation
	JOINT lowerback
	{
		OFFSET 0 0 0
		CHANNELS 6 Xposition Yposition Zposition Zrotation Xrotation Yrotation
		JOINT upperback
		{
			OFFSET -0.214371 12.3768 -1.12219
			CHANNELS 6 Xposition Yposition Zposition Zrotation Xrotation Yrotation
			JOINT thorax
			{
				OFFSET -0.00137213 12.3873 0.296195
				CHANNELS 6 Xposition Yposition Zposition Zrotation Xrotation Yrotation
				JOINT lowerneck
				{
					OFFSET 0.0883157 12.5016 0.82912
					CHANNELS 6 Xposition Yposition Zposition Zrotation Xrotation Yrotation
					JOINT upperneck
					{
						OFFSET -1 10.1794 0.943522
						CHANNELS 6 Xposition Yposition Zposition Zrotation Xrotation Yrotation
						JOINT head
						{
							OFFSET 0.667525 10.2797 -1.57149
							CHANNELS 6 Xposition Yposition Zposition Zrotation Xrotation Yrotation
							End Site
							{
								OFFSET 0 0 0
							}
						}
					}
				}
				JOINT lclavicle
				{
					OFFSET 0.0883157 12.5016 0.82912
					CHANNELS 6 Xposition Yposition Zposition Zrotation Xrotation Yrotation
					JOINT lhumerus
					{
						OFFSET 20.61 4.45006 1.43784
						CHANNELS 6 Xposition Yposition Zposition Zrotation Xrotation Yrotation
						JOINT lradius
						{
							OFFSET 0 -30.3438 0
							CHANNELS 6 Xposition Yposition Zposition Zrotation Xrotation Yrotation
							JOINT lwrist
							{
								OFFSET 0 -18.964 0
								CHANNELS 6 Xposition Yposition Zposition Zrotation Xrotation Yrotation
								JOINT lhand
								{
									OFFSET 0 -9.48199 0
									CHANNELS 6 Xposition Yposition Zposition Zrotation Xrotation Yrotation
									JOINT lfingers
									{
										OFFSET 0 -3.17138 0
										CHANNELS 6 Xposition Yposition Zposition Zrotation Xrotation Yrotation
										End Site
										{
											OFFSET 0 -2.55685 0
										}
									}
								}
								JOINT lthumb
								{
									OFFSET 0 -9.48199 0
									CHANNELS 6 Xposition Yposition Zposition Zrotation Xrotation Yrotation
									End Site
									{
										OFFSET 0 -3.67114 0
									}
								}
							}
						}
					}
				}
				JOINT rclavicle
				{
					OFFSET 0.0883157 12.5016 0.82912
					CHANNELS 6 Xposition Yposition Zposition Zrotation Xrotation Yrotation
					JOINT rhumerus
					{
						OFFSET -20.61 4.45 1.44
						CHANNELS 6 Xposition Yposition Zposition Zrotation Xrotation Yrotation
						JOINT rradius
						{
							OFFSET 0 -29.5102 0
							CHANNELS 6 Xposition Yposition Zposition Zrotation Xrotation Yrotation
							JOINT rwrist
							{
								OFFSET 0 -19.2342 0
								CHANNELS 6 Xposition Yposition Zposition Zrotation Xrotation Yrotation
								JOINT rhand
								{
									OFFSET 0 -9.61712 0
									CHANNELS 6 Xposition Yposition Zposition Zrotation Xrotation Yrotation
									JOINT rfingers
									{
										OFFSET 0 -3.29215 0
										CHANNELS 6 Xposition Yposition Zposition Zrotation Xrotation Yrotation
										End Site
										{
											OFFSET 0 -2.557 0
										}
									}
								}
								JOINT rthumb
								{
									OFFSET 0 -9.61712 0
									CHANNELS 6 Xposition Yposition Zposition Zrotation Xrotation Yrotation
									End Site
									{
										OFFSET 0 -3.671 0
									}
								}
							}
						}
					}
				}
			}
		}
	}
	JOINT rfemur
	{
		OFFSET -8.46272 -9.62775 4.76248
		CHANNELS 6 Xposition Yposition Zposition Zrotation Xrotation Yrotation
		JOINT rtibia
		{
			OFFSET 1.00552e-005 -38.0331 0
			CHANNELS 6 Xposition Yposition Zposition Zrotation Xrotation Yrotation
			JOINT rfoot
			{
				OFFSET 1.14428e-005 -43.2815 0
				CHANNELS 6 Xposition Yposition Zposition Zrotation Xrotation Yrotation
				JOINT rtoes
				{
					OFFSET 0 -14.1868 -3.08763
					CHANNELS 6 Xposition Yposition Zposition Zrotation Xrotation Yrotation
					End Site
					{
						OFFSET 0 -7.27332 0
					}
				}
			}
		}
	}
	JOINT lfemur
	{
		OFFSET 9.10607 -9.62778 4.76249
		CHANNELS 6 Xposition Yposition Zposition Zrotation Xrotation Yrotation
		JOINT ltibia
		{
			OFFSET -1.01399e-005 -38.3535 0
			CHANNELS 6 Xposition Yposition Zposition Zrotation Xrotation Yrotation
			JOINT lfoot
			{
				OFFSET -1.12937e-005 -42.7176 0
				CHANNELS 6 Xposition Yposition Zposition Zrotation Xrotation Yrotation
				JOINT ltoes
				{
					OFFSET 0 -13.9965 -2.83857
					CHANNELS 6 Xposition Yposition Zposition Zrotation Xrotation Yrotation
					End Site
					{
						OFFSET 0 -7.16348 0
					}
				}
			}
		}
	}
}
MOTION
Frames: 5
Frame Time: 0.00833333
0.731472	97.4539	106.54	1.87632	-5.16806	2.17519	0 0 0 -2.53473	14.158	-1.44866	-0.214371 12.3768 -1.12219 2.70662	0.0638392	-2.12638	-0.00137213 12.3873 0.296195 4.8527	-7.67999	-0.877893	0.0883157 12.5016 0.82912 -1.8902	-3.66019	-0.199126	-1 10.1794 0.943522 -2.27708	8.71371	0.724505	0.667525 10.2797 -1.57149 -0.359204	2.93133	-0.12202	0.0883157 12.5016 0.82912 -15	0	-0	20.61 4.45006 1.43784 12.0564	6.86855	-175.672	0 -30.3438 0 -0	41.808	-0	0 -18.964 0 1.34374e-014	-2.8301e-015	-113.787	0 -9.48199 0 1.22245	4.37968	-2.58917e-014	0 -3.17138 0 -0	7.12502	-0	0 -9.48199 0 25	15	-1.36605e-015	0.0883157 12.5016 0.82912 15	0	-0	-20.61 4.45 1.44 -14.393	7.77815	160.068	0 -29.5102 0 -0	25.5219	-0	0 -19.2342 0 1.30082e-015	-4.06974e-015	125.451	0 -9.61712 0 1.22	4.38	-0	0 -3.29215 0 -0	7.12502	-0	0 -9.61712 0 25	15	-7.97034e-015	-8.46272 -9.62775 4.76248 2.29131	-17.5884	8.0863	1.00552e-005 -38.0331 0 -0	19.9066	-0	1.14428e-005 -43.2815 0 -2.33978e-015	-64.9791	-2.68412e-015	0 -14.1868 -3.08763 -0	-16.6624	-0	9.10607 -9.62778 4.76249 -5.43289	12.9475	-8.40608	-1.01399e-005 -38.3535 0 -0	31.4259	-0	-1.12937e-005 -42.7176 0 1.09794e-015	-55.2083	1.33694e-015	0 -13.9965 -2.83857 -0	-40.8822	-0
0.646107	97.5529	107.575	1.47873	-5.0799	2.02993	0 0 0 -2.17788	14.0331	-1.41245	-0.214371 12.3768 -1.12219 2.84286	-0.116217	-2.00276	-0.00137213 12.3873 0.296195 4.77738	-7.825	-0.822228	0.0883157 12.5016 0.82912 -1.91249	-3.56185	-0.219655	-1 10.1794 0.943522 -2.3455	8.97666	0.72324	0.667525 10.2797 -1.57149 -0.379433	3.01019	-0.136124	0.0883157 12.5016 0.82912 -15	0	-0	20.61 4.45006 1.43784 11.7828	7.2088	-175.395	0 -30.3438 0 -0	41.4577	-0	0 -18.964 0 1.34316e-014	-2.84321e-015	-113.904	0 -9.48199 0 1.22245	4.37968	-2.58917e-014	0 -3.17138 0 -0	7.12502	-0	0 -9.48199 0 25	15	-1.36605e-015	0.0883157 12.5016 0.82912 15	0	-0	-20.61 4.45 1.44 -14.4344	8.062	159.565	0 -29.5102 0 -0	25.2261	-0	0 -19.2342 0 1.3117e-015	-4.08499e-015	125.604	0 -9.61712 0 1.22	4.38	-0	0 -3.29215 0 -0	7.12502	-0	0 -9.61712 0 25	15	-7.97034e-015	-8.46272 -9.62775 4.76248 2.76149	-17.1507	7.85546	1.00552e-005 -38.0331 0 -0	19.9253	-0	1.14428e-005 -43.2815 0 -2.27415e-015	-64.3732	-2.6248e-015	0 -14.1868 -3.08763 -0	-14.8082	-0	9.10607 -9.62778 4.76249 -5.00393	12.1693	-8.21711	-1.01399e-005 -38.3535 0 -0	33.0118	-0	-1.12937e-005 -42.7176 0 9.98764e-016	-52.6275	1.25677e-015	0 -13.9965 -2.83857 -0	-39.6133	-0
0.553905	97.6459	108.585	1.08373	-4.99809	1.85185	0 0 0 -1.83208	13.9442	-1.36271	-0.214371 12.3768 -1.12219 2.97716	-0.296509	-1.8639	-0.00137213 12.3873 0.296195 4.70378	-7.9913	-0.758741	0.0883157 12.5016 0.82912 -1.9221	-3.45962	-0.240774	-1 10.1794 0.943522 -2.41702	9.21398	0.717727	0.667525 10.2797 -1.57149 -0.403551	3.07908	-0.150611	0.0883157 12.5016 0.82912 -15	0	-0	20.61 4.45006 1.43784 11.5217	7.54623	-175.152	0 -30.3438 0 -0	41.114	-0	0 -18.964 0 1.34271e-014	-2.85328e-015	-113.994	0 -9.48199 0 1.22245	4.37968	-2.58917e-014	0 -3.17138 0 -0	7.12502	-0	0 -9.48199 0 25	15	-1.36605e-015	0.0883157 12.5016 0.82912 15	0	-0	-20.61 4.45 1.44 -14.4829	8.33606	159.119	0 -29.5102 0 -0	24.9521	-0	0 -19.2342 0 1.31998e-015	-4.09653e-015	125.72	0 -9.61712 0 1.22	4.38	-0	0 -3.29215 0 -0	7.12502	-0	0 -9.61712 0 25	15	-7.97034e-015	-8.46272 -9.62775 4.76248 3.22138	-16.7141	7.52358	1.00552e-005 -38.0331 0 -0	19.988	-0	1.14428e-005 -43.2815 0 -2.2393e-015	-64.0402	-2.59342e-015	0 -14.1868 -3.08763 -0	-13.231	-0	9.10607 -9.62778 4.76249 -4.58092	11.2756	-7.99226	-1.01399e-005 -38.3535 0 -0	34.7008	-0	-1.12937e-005 -42.7176 0 9.0809e-016	-49.9676	1.18599e-015	0 -13.9965 -2.83857 -0	-38.3284	-0
0.45979	97.7409	109.576	0.689397	-4.92529	1.65252	0 0 0 -1.49582	13.8905	-1.30369	-0.214371 12.3768 -1.12219 3.11002	-0.470181	-1.715	-0.00137213 12.3873 0.296195 4.63236	-8.17024	-0.690374	0.0883157 12.5016 0.82912 -1.92119	-3.36291	-0.261793	-1 10.1794 0.943522 -2.48569	9.42248	0.70884	0.667525 10.2797 -1.57149 -0.429106	3.13854	-0.164968	0.0883157 12.5016 0.82912 -15	0	-0	20.61 4.45006 1.43784 11.278	7.87149	-174.952	0 -30.3438 0 -0	40.7836	-0	0 -18.964 0 1.34239e-014	-2.86033e-015	-114.057	0 -9.48199 0 1.22245	4.37968	-2.58917e-014	0 -3.17138 0 -0	7.12502	-0	0 -9.48199 0 25	15	-1.36605e-015	0.0883157 12.5016 0.82912 15	0	-0	-20.61 4.45 1.44 -14.5399	8.58347	158.734	0 -29.5102 0 -0	24.6954	-0	0 -19.2342 0 1.32657e-015	-4.10567e-015	125.812	0 -9.61712 0 1.22	4.38	-0	0 -3.29215 0 -0	7.12502	-0	0 -9.61712 0 25	15	-7.97034e-015	-8.46272 -9.62775 4.76248 3.67475	-16.2701	7.11004	1.00552e-005 -38.0331 0 -0	20.0832	-0	1.14428e-005 -43.2815 0 -2.23198e-015	-63.9692	-2.58684e-015	0 -14.1868 -3.08763 -0	-11.9666	-0	9.10607 -9.62778 4.76249 -4.15934	10.2692	-7.74371	-1.01399e-005 -38.3535 0 -0	36.4936	-0	-1.12937e-005 -42.7176 0 8.27036e-016	-47.3117	1.12513e-015	0 -13.9965 -2.83857 -0	-37.1058	-0
0.368671	97.8419	110.556	0.293937	-4.86335	1.44401	0 0 0 -1.16698	13.8687	-1.23965	-0.214371 12.3768 -1.12219 3.24158	-0.630841	-1.56115	-0.00137213 12.3873 0.296195 4.56275	-8.35251	-0.620028	0.0883157 12.5016 0.82912 -1.91235	-3.28009	-0.282279	-1 10.1794 0.943522 -2.54537	9.60012	0.696278	0.667525 10.2797 -1.57149 -0.453581	3.18932	-0.178858	0.0883157 12.5016 0.82912 -15	0	-0	20.61 4.45006 1.43784 11.0558	8.17555	-174.799	0 -30.3438 0 -0	40.4722	-0	0 -18.964 0 1.3422e-014	-2.8648e-015	-114.097	0 -9.48199 0 1.22245	4.37968	-2.58917e-014	0 -3.17138 0 -0	7.12502	-0	0 -9.48199 0 25	15	-1.36605e-015	0.0883157 12.5016 0.82912 15	0	-0	-20.61 4.45 1.44 -14.6059	8.78813	158.41	0 -29.5102 0 -0	24.4512	-0	0 -19.2342 0 1.33267e-015	-4.11411e-015	125.897	0 -9.61712 0 1.22	4.38	-0	0 -3.29215 0 -0	7.12502	-0	0 -9.61712 0 25	15	-7.97034e-015	-8.46272 -9.62775 4.76248 4.12528	-15.8101	6.64024	1.00552e-005 -38.0331 0 -0	20.1947	-0	1.14428e-005 -43.2815 0 -2.24874e-015	-64.1312	-2.60191e-015	0 -14.1868 -3.08763 -0	-11.02	-0	9.10607 -9.62778 4.76249 -3.73541	9.15611	-7.48242	-1.01399e-005 -38.3535 0 -0	38.3865	-0	-1.12937e-005 -42.7176 0 7.56263e-016	-44.7514	1.07418e-015	0 -13.9965 -2.83857 -0	-36.0151	-0
